<svg xmlns="http://www.w3.org/2000/svg" viewBox="0 0 215.19 32.7"><title>gimo</title><path d="M122,140.06a3.59,3.59,0,0,1,3.6-3.6h28.72a8.74,8.74,0,0,1,3.53.72,9.1,9.1,0,0,1,2.89,1.95,8.65,8.65,0,0,1,1.91,2.92,9.56,9.56,0,0,1,.67,3.57v1.65a9.5,9.5,0,0,1-.67,3.56,8.65,8.65,0,0,1-1.91,2.92,9.1,9.1,0,0,1-2.89,1.95,8.74,8.74,0,0,1-3.53.72H115.25a10.1,10.1,0,0,1-5.47-1.5,14.34,14.34,0,0,1-4.09-3.87,18.29,18.29,0,0,1-2.59-5.28,19.4,19.4,0,0,1-.9-5.71,18.58,18.58,0,0,1,.94-5.73,17.52,17.52,0,0,1,2.74-5.25,14.9,14.9,0,0,1,4.35-3.87,11.16,11.16,0,0,1,5.77-1.5h43.73a3.6,3.6,0,1,1,0,7.2H117.66a8.4,8.4,0,0,0-4.24.94,7.79,7.79,0,0,0-2.55,2.29,8.06,8.06,0,0,0-1.28,3,13.1,13.1,0,0,0,0,5.93,8.06,8.06,0,0,0,1.28,3,7.79,7.79,0,0,0,2.55,2.29,8.4,8.4,0,0,0,4.24.94H154a2.13,2.13,0,0,0,1.62-.83,2.91,2.91,0,0,0,.71-1.95,3.13,3.13,0,0,0-.64-1.95,2,2,0,0,0-1.69-.83H125.61a3.59,3.59,0,0,1-3.6-3.6Z" transform="translate(-102.2 -123.71)" style="fill:#fff"/><path d="M177,155.37a3.6,3.6,0,0,1-6.15-2.55V127.31a3.6,3.6,0,1,1,7.2,0v25.51A3.47,3.47,0,0,1,177,155.37Z" transform="translate(-102.2 -123.71)" style="fill:#fff"/><path d="M248.84,152.82a3.6,3.6,0,1,1-7.2,0V136.46c0-2.05-.13-3.07-.38-3.07s-.9.67-2.1,2l-16.5,18.76a6,6,0,0,1-2.4,1.68,8.58,8.58,0,0,1-6.15,0,6,6,0,0,1-2.4-1.68l-16.5-18.76c-1.15-1.35-1.85-2-2.1-2s-.38,1-.38,3.07v16.36a3.6,3.6,0,1,1-7.2,0V130.91a7.78,7.78,0,0,1,1.73-5.1,5.78,5.78,0,0,1,4.72-2.1,5.93,5.93,0,0,1,3.23.9,13.85,13.85,0,0,1,2.63,2.18l17.25,19.65a9,9,0,0,0,.93.79,2,2,0,0,0,1.17.41,2,2,0,0,0,1.16-.41,9.23,9.23,0,0,0,.94-.79l17.17-19.65h.08a7.83,7.83,0,0,1,2.55-2.25,6.74,6.74,0,0,1,3.3-.83,5.78,5.78,0,0,1,4.72,2.1,7.78,7.78,0,0,1,1.73,5.1Z" transform="translate(-102.2 -123.71)" style="fill:#fff"/><path d="M317.39,140.06a18.57,18.57,0,0,1-.93,5.74,17.52,17.52,0,0,1-2.74,5.25,14.9,14.9,0,0,1-4.35,3.87,11.19,11.19,0,0,1-5.78,1.5h-34.2a11,11,0,0,1-5.48-1.69,15,15,0,0,1-4.08-3.86,17.85,17.85,0,0,1-2.59-5.18,18.59,18.59,0,0,1-.9-5.63,18.28,18.28,0,0,1,.94-5.73,17.27,17.27,0,0,1,2.73-5.25,14.9,14.9,0,0,1,4.35-3.87,11.19,11.19,0,0,1,5.78-1.5h34.2a11,11,0,0,1,5.48,1.69,15,15,0,0,1,4.08,3.86,17.85,17.85,0,0,1,2.59,5.18A18.62,18.62,0,0,1,317.39,140.06Zm-11.17,8.22A7.71,7.71,0,0,0,308.8,146a8.06,8.06,0,0,0,1.28-3,13.1,13.1,0,0,0,0-5.93,8.06,8.06,0,0,0-1.28-3,7.71,7.71,0,0,0-2.58-2.29,8.48,8.48,0,0,0-4.2-.94H271.71a8.39,8.39,0,0,0-4.23.94,7.79,7.79,0,0,0-2.55,2.29,8.06,8.06,0,0,0-1.28,3,13.1,13.1,0,0,0,0,5.93,8.06,8.06,0,0,0,1.28,3,7.79,7.79,0,0,0,2.55,2.29,8.39,8.39,0,0,0,4.23.94H302A8.48,8.48,0,0,0,306.22,148.28Z" transform="translate(-102.2 -123.71)" style="fill:#fff"/></svg>